<?xml version="1.0" encoding="UTF-8" standalone="no"?>
<svg width="67px" height="66px" viewBox="0 0 67 66" version="1.1" xmlns="http://www.w3.org/2000/svg" xmlns:xlink="http://www.w3.org/1999/xlink">
    <!-- Generator: Sketch 3.6 (26304) - http://www.bohemiancoding.com/sketch -->
    <title>icon_tennis_ball</title>
    <desc>Created with Sketch.</desc>
    <defs></defs>
    <g id="Page-1" stroke="none" stroke-width="1" fill="none" fill-rule="evenodd">
        <g id="tennis" transform="translate(4.000000, 3.000000)">
            <path d="M58.1933815,29.8832793 C58.1933815,45.8993804 45.2097691,58.8829928 29.193668,58.8829928 C13.1775668,58.8829928 0.193381503,45.8993804 0.193381503,29.8832793 C0.193381503,13.8671781 13.1775668,0.882992806 29.193668,0.882992806 C45.2097691,0.882992806 58.1933815,13.8671781 58.1933815,29.8832793" id="Fill-1" fill="#F1C40F"></path>
            <path d="M41.5634054,55.9457471 C27.3509882,62.8776061 10.2467177,57.1381958 3.05786287,43.1374124 C12.1214673,51.1008755 25.7502275,53.1965533 37.649023,47.393123 C49.1359515,41.7905736 55.8139552,30.3863413 55.6376492,18.7672407 C61.4856127,32.8258371 55.4291866,49.1829538 41.5634054,55.9457471 Z" id="Clip-5" fill="#E0B60E"></path>
            <path d="M20.1477628,14.8399447 C8.72162651,20.9153292 2.60297673,33.0110527 3.74696924,44.9444918 C3.6445179,44.7613496 3.5437765,44.5766772 3.44477577,44.3904839 C-4.07428078,30.2491952 1.294292,12.6893849 15.4355806,5.17032838 C29.5768693,-2.34872817 47.1366796,3.01984461 54.6557362,17.1611333 C54.9286548,17.6744186 55.1845945,18.1922078 55.4237519,18.7138571 C45.9119234,9.47696166 32.2182299,8.42196355 20.1477628,14.8399447 Z" id="Clip-8" fill="#F6D44B"></path>
            <path d="M57.323251,36.9620765 C56.2373087,41.2910802 54.1782597,45.2339748 51.3921236,48.5447408 C52.164157,46.7782049 52.9424583,44.4861661 53.7075488,41.6139036 C56.7020335,30.372167 48.2411043,20.6858647 35.0747925,14.8892051 C29.079136,12.2495305 24.8131352,8.61454396 22.066279,4.93929643 C21.9498429,4.78350689 21.8369312,4.60693276 21.7225455,4.40736773 C21.609725,4.21053357 21.4957284,3.99154732 21.3800397,3.75288472 C21.238298,3.46047566 21.1004802,3.15214261 20.970697,2.84445628 C20.8928195,2.65982659 20.83408,2.51436766 20.7997479,2.42641253 L23.1238047,1.51924847 C23.2909091,1.48366041 23.4585462,1.44951172 23.6267022,1.41681601 C23.653571,1.48348732 23.6902256,1.57270392 23.7348603,1.67852255 C23.8458232,1.94159046 23.9631195,2.20401166 24.0795995,2.44430656 C24.1672015,2.62502711 24.2502532,2.78456842 24.3253145,2.91552547 C24.3838821,3.01770653 24.4340824,3.09621098 24.4692821,3.14330749 C26.92443,6.4282542 30.7969034,9.72792273 36.2836167,12.1435278 C42.1056693,14.7067708 47.6397729,18.4305173 51.5145676,22.8664879 C55.241306,27.1329596 57.2956569,31.8673235 57.323251,36.9620765 L57.323251,36.9620765 Z M43.6167395,55.0476095 C41.5883519,56.2127 39.4057332,57.1395993 37.1070488,57.7901422 C37.0864469,57.7919451 37.065804,57.7937525 37.0451202,57.7955642 C29.7502957,58.434531 23.256513,55.1977546 17.9700078,49.1225757 C13.7363556,44.257321 10.504673,37.7277881 9.09805488,31.878783 C7.99585284,27.2956022 6.14622829,23.5069262 3.91332031,20.4941124 C3.40038875,19.8020251 2.90178455,19.2005151 2.43286261,18.6891581 C2.82788079,17.7459641 3.27130989,16.828072 3.76004245,15.9385895 C4.09215186,16.1450154 4.34037205,16.3348386 4.52736346,16.535463 C5.10027268,17.1501413 5.7054818,17.8738875 6.32353493,18.707813 C8.78698109,22.031687 10.8139858,26.1836992 12.0148932,31.1773171 C13.3123903,36.5725749 16.3279792,42.6654958 20.2331342,47.1532461 C24.9365973,52.5584011 30.5442634,55.3534994 36.7833471,54.8070069 C39.9971221,54.5255066 42.2314503,54.8378551 43.6167395,55.0476095 L43.6167395,55.0476095 Z" id="Fill-24" fill="#FFFFFF"></path>
        </g>
    </g>
</svg>