<?xml version="1.0"?><svg width="640" height="480" xmlns="http://www.w3.org/2000/svg">
 <g>
  <title>Layer 1</title>
  <path fill="#D9FE1C" fill-rule="evenodd" stroke="#D9FE1C" stroke-width="0.5px" d="m324.024414,7.280846l0.283844,-0.113541l1.02179,0.283836q0.965027,0.283829 0.794708,0.397362q-0.113525,0.170296 -0.965027,0.454124l-0.851471,0.283829l-0.851471,0.283829l-0.851532,0.283836l9.082581,-0.567665q9.08255,-0.567657 17.597473,-0.567657l8.514893,0l2.27063,0.170303l2.27063,0.113525l-0.113525,0.567657l-0.170288,0.567665l-0.170319,0.113533l-0.113495,0.170296l-1.135315,0.283829l-1.135376,0.283829l-3.689758,0q-3.689789,0 -7.095764,0l-3.405945,0l2.27063,0.283829l2.27063,0.283836l14.191498,1.986809q14.191528,1.986816 16.178314,2.270638l1.986816,0.283836l1.135315,0l1.135315,0l-0.113525,-0.170296l-0.170319,-0.113541l-0.170258,-0.113518l-0.113525,-0.170303l-0.851532,-0.283836l-0.851471,-0.283844l-0.567657,-0.283813q-0.567657,-0.283836 -1.419159,-0.567657l-0.851471,-0.283836l-0.851471,-0.283829l-0.851532,-0.283829l-0.567627,-0.283829l-0.567688,-0.283836l0.851471,0l0.851532,0l1.135315,0.283836l1.135315,0.283829l7.095734,2.554466q7.095764,2.554459 7.663391,2.838303l0.567688,0.283836l0.851471,0.283821l0.851532,0.283836l0.851471,0.283813l0.851471,0.283844l0.567688,0.283836l0.567657,0.283821l-0.113556,0.170296l-0.170288,0.113541l-0.170258,0.113518l-0.113556,0.170296l-3.122162,0.283844l-3.122101,0.283813l0.851471,0.283844l0.851471,0.283836l6.244293,1.419151q6.244232,1.419159 13.056152,3.689774q6.81192,2.270645 7.947296,2.554459l1.135315,0.283844l0.567627,0.283844l0.567657,0.283813l0.567657,0.283844l0.567657,0.283813l0.851471,0l0.851532,0l-0.567688,-0.283813l-0.567627,-0.283844l-0.567688,-0.283813l-0.567657,-0.283844l-0.567657,-0.283844l-0.567657,-0.283813l-0.851471,-0.283829q-0.851471,-0.283829 -1.419159,-0.567657l-0.567688,-0.283813l-1.135315,-0.283844l-1.135315,-0.283844l-0.851471,-0.170303l-0.851501,-0.11351l0,-0.567657l0,-0.567673l0.567688,0.113541l0.567627,0.170288l3.405975,0.851501q3.405945,0.851501 8.628418,4.087158q5.279266,3.292419 11.35321,7.152512q6.130707,3.803314 8.401337,4.938629q2.270691,1.13533 9.082581,5.392761q6.811951,4.257462 7.379578,4.427765q0.567688,0.113541 1.135315,2.497696q0.567688,2.440948 8.060791,7.947235q7.549866,5.56308 10.558472,9.990814q2.951843,4.371002 4.370972,5.222488q1.419189,0.851471 1.532715,1.021774l0.170288,0.113541l0.170288,0.113541l0.113525,0.170303l0.113586,0.170303l0.170227,0.11351l0.170288,0.113541l0.113586,0.170303l0.567627,0.283813l0.567688,0.283844l0.567688,0.170288l0.567627,0.113525l-0.113525,0.567673l-0.170349,0.567657l-0.170288,0.567657l-0.113464,0.567657l-0.567688,-0.113525l-0.567688,-0.170288l-0.567627,-0.283844l-0.567688,-0.283844l-0.113525,-0.170288l-0.170288,-0.113525l-0.170288,-0.113541l-0.113525,-0.170303l-0.113586,-0.170288l-0.170288,-0.113525l-0.170227,-0.113541l-0.113586,-0.170303l-0.567627,-0.283829q-0.567688,-0.283813 -3.689819,-2.554474l-3.122131,-2.270645l-0.567627,-0.283813l-0.567688,-0.283844l-0.113525,-0.170288l-0.170288,-0.113525l-0.170349,-0.113541l-0.113464,-0.170288l-0.567688,-0.283829l-0.567627,-0.283829l-0.113586,-0.170303l-0.170288,-0.113541l-0.170288,-0.113525l-0.113525,-0.170288l-0.567688,0l-0.567627,0l0.113525,0.170288l0.170288,0.113525l0.170288,0.113541l0.113525,0.170303l0.113586,0.170288l0.170227,0.113541l0.170349,0.113525l0.113525,0.170303l0.113525,0.170288l0.170288,0.113541l0.170288,0.113525l0.113586,0.170288l0.113464,0.170303l0.170288,0.113541l0.170349,0.113525l0.113525,0.170288l0.113525,0.170334l0.170288,0.11351l0.170288,0.113541l0.113586,0.170303l0.113464,0.170303l0.170349,0.11351l0.170288,0.113541l0.113525,0.170303l0.113525,0.170288l0.170288,0.113525l1.873291,1.816528q1.816467,1.87326 8.514893,6.584839q6.641663,4.654816 12.318237,10.331421q5.676575,5.676605 8.514893,9.082565q2.838257,3.40596 3.122131,3.973618l0.283813,0.567642l0.170288,0.113541l0.113586,0.170303l0.113525,0.170303l0.170288,0.113541l0.283813,0.567657l0.283813,0.567657l0.283875,0.567657l0.283813,0.567642l0.170288,0.113541l0.113525,0.170303l0.113525,0.170303l0.170288,0.11351l0.170349,0.113541l0.113525,0.170303l-0.567688,0l-0.567627,0l-0.113586,-0.170303l-0.170288,-0.113541l-0.170288,-0.11351l-0.113525,-0.170303l-0.113525,-0.170303l-0.170288,-0.113541l-0.170288,-0.11351l-0.113525,-0.170303l-0.113586,-0.170288l-0.170288,-0.113541l-0.170288,-0.113541l-0.113525,-0.170303l-0.113525,-0.170303l-0.170349,-0.11351l-0.283752,-0.567657l-0.283875,-0.567657l-0.170288,-0.113541l-0.113525,-0.170303l-0.113525,-0.170303q-0.170349,-0.113541 -2.157104,-2.667999l-1.986816,-2.554459l-0.170288,-0.113541l-0.113586,-0.170303l-0.113525,-0.170303l-0.170288,-0.11351l-0.170288,-0.113541l-0.113525,-0.170303l-0.113525,-0.170303l-0.170288,-0.113541l-0.283875,-0.567642l-0.283813,-0.567657l-0.283813,-0.567657l-0.283813,-0.567657l-0.170349,0.11351l-0.113525,0.170303l-0.567627,0.170303l-0.567688,0.113541l0.113525,0.567657l0.170349,0.567657l0.283813,0.567642l0.283813,0.567688l0.170288,0.11351l0.113525,0.170303l0.113525,0.170303l0.170349,0.113541l0.170288,0.11351l0.113525,0.170303l0.113525,0.170303l0.170288,0.113541l0.170349,0.113541l0.113464,0.170288l0.113586,0.170303l0.170288,0.113525l1.703003,1.986801q1.702942,1.986801 1.87323,2.100342l0.113525,0.170303l0.113586,0.170303l0.170288,0.113541l0.170227,0.11351l0.113586,0.170303l0.113525,0.170303l0.170288,0.113541l0.283813,0.567657l0.283813,0.567657l0.170349,0.113541l0.113525,0.170288l0.113525,0.170303l0.170288,0.11351l0.170288,0.567657l0.113586,0.567688l-0.567688,0l-0.567688,0l0.113586,0.567657l0.170227,0.567657l0.170349,0.11351l0.113525,0.170303l-0.567688,0l-0.567627,0l-0.113586,-0.170303l-0.170227,-0.11351l-0.283875,-0.567657l-0.283813,-0.567657l-0.170288,-0.113541l-0.113525,-0.170303l-0.113586,-0.170303l-0.170227,-0.113541l-0.170349,-0.11351l-0.113525,-0.170303l-0.113525,-0.170303l-0.170288,-0.113541l-0.283875,-1.1353q-0.283752,-1.135315 -2.951782,-4.427765q-2.724731,-3.235657 -3.973633,-5.676605q-1.305664,-2.384155 -5.279236,-6.92543l-3.973633,-4.54129l-0.170288,-0.113525l-0.113525,-0.170288l-0.113525,-0.170303l-0.170288,-0.113541l-0.170349,-0.113525l-0.113464,-0.170319l-0.113586,-0.170303l-0.170288,-0.11351l-0.170288,-0.113541l-0.113525,-0.170303l-0.113525,-0.170303l-0.170349,-0.11351l-0.170288,-0.113541l-0.113464,-0.170303l-0.113586,-0.170288l-0.170288,-0.113525l-0.170288,-0.113541l-0.113525,-0.170303l-0.113525,-0.170288l-0.170349,-0.113541l-0.170288,-0.113525l-0.113525,-0.170288l-0.567627,0l-0.567688,0l0.113586,0.170288l0.170227,0.113525l0.170288,0.113541l0.113586,0.170288l0.113525,0.170303l0.170288,0.113541l0.170288,0.113525l0.113525,0.170288l0.113525,0.170303l0.170288,0.113541l0.283875,0.567657l0.283813,0.567657l0.170288,0.113541l0.113586,0.170303l0.113464,0.170288l0.170288,0.113525l0.170349,0.113541l0.113525,0.170288l0.113525,0.170303l0.170288,0.113525l10.785522,15.042999q10.785522,15.042999 12.7724,18.165115q1.986755,3.122147 4.257446,6.81192q2.27063,3.689789 2.554443,4.257446l0.283875,0.567657l0.283813,0.567657l0.283813,0.567688l0.283813,0.567642l0.283813,0.567657l0.170288,0.567657l0.113586,0.567657l0.567627,0.113541l0.567688,0.170303l0.113525,0.170303l0.170288,0.11351l0,-0.851471l0,-0.851501l-0.283813,-0.567657l-0.283875,-0.567642l-0.170227,-0.113541q-0.113586,-0.170303 -0.567688,-0.908264l-0.3974,-0.681198l-0.283813,-0.567657l-0.283813,-0.567657l-0.170288,-0.567673l-0.113525,-0.567657l0.567627,0.113541l0.567688,0.170303l0.567627,0.283813l0.567688,0.283844l0.113525,0.170288l0.170288,0.113541l0.170288,0.113525l0.113525,0.170303l0.567688,0.283829l0.567688,0.283829l0.113525,0.170288l0.170227,0.113541l1.873352,4.087158q1.816467,4.143921 2.667969,4.711578q0.851501,0.567642 0.965027,0.737946l0.170288,0.113541l0.283813,0.567657l0.283875,0.567657l0.170227,0.113541l0.113586,0.170303l0.113525,0.170288l0.170288,0.113525l0.170288,0.113541l0.113525,0.170303l-0.567627,0q-0.567688,0 -1.02179,-0.397369q-0.397339,-0.454132 -0.965027,-0.454132l-0.567627,0l0.85144,3.689804q0.851501,3.689789 1.135315,3.973602q0.283875,0.283844 0.454102,-0.283813q0.113586,-0.567688 1.930115,1.135315q1.87323,1.702972 3.405945,4.087158q1.589478,2.440918 2.157104,2.611206q0.567688,0.113556 0.681152,1.532715q0.170349,1.419128 0.340637,4.54126l0.113525,3.122131l-0.567627,-0.113525l-0.567688,-0.170288l-0.113525,-0.170288l-0.170288,-0.113525l-0.283813,-0.567688q-0.283875,-0.567657 -0.567688,-1.135315l-0.283875,-0.567657l-0.283752,-0.567657l-0.283875,-0.567657l0,1.419128l0,1.419159l2.838318,11.35321q2.838318,11.35318 3.973633,14.191498q1.135315,2.838287 1.135315,4.825104q0,1.986816 0,3.973602l0,1.986847l0.283813,0.567657l0.283875,0.567657l0.283752,-1.419159q0.283875,-1.419159 0.567688,-2.27066l0.283813,-0.851501l0.3974,14.191528q0.454102,14.191528 1.02179,14.191528q0.567627,0 1.135315,1.816498q0.567627,1.87326 -0.283875,1.703003q-0.85144,-0.113586 -0.567688,2.157043q0.283875,2.270691 0.851563,2.270691q0.567627,0 0.454102,4.257446q-0.170288,4.257446 -0.340576,6.528076l-0.113525,2.27063l-0.113586,0.567657l-0.170288,0.567627l-0.397339,5.56311q-0.454102,5.506287 0.113525,5.335999q0.567688,-0.113525 -0.113525,4.995422q-0.737976,5.108917 -1.135315,8.798737q-0.454102,3.689789 0.113525,3.689789q0.567688,0 0.113586,4.825073q-0.3974,4.825134 -2.838318,12.772369q-2.384216,7.947235 -3.519531,7.493103q-1.135315,-0.397339 -1.816528,2.27063q-0.737915,2.724792 -1.021729,6.130737q-0.283875,3.405975 -3.689819,11.920868q-3.405945,8.514923 -4.257446,10.217865q-0.851501,1.703003 -2.384155,2.838318q-1.589478,1.135284 -2.724792,4.654785q-1.135315,3.576263 -2.157104,5.108978q-0.965027,1.589447 -1.135315,1.021759q-0.113525,-0.567627 -0.681213,-0.567627q-0.567627,0 -0.283813,1.702972q0.283813,1.702942 -2.100342,3.689789q-2.440918,1.986786 -3.576294,4.257446q-1.135315,2.27063 -1.135315,3.122162q0,0.851471 -9.650208,12.488464q-9.650208,11.637054 -11.750549,14.929474q-2.157104,3.235657 -4.427734,4.93866q-2.27063,1.702972 -10.785522,10.217896q-8.514954,8.514862 -17.881348,15.610626q-9.366333,7.095764 -15.89447,11.35321q-6.528076,4.257446 -12.488495,8.628418q-5.960449,4.427734 -5.960449,4.995422q0,0.567688 -0.567657,0.681152q-0.567627,0.170288 -0.681213,0.340637l-0.170258,0.113525l-0.170288,0.113525l-0.113556,0.170288l-0.113525,0.170288l-0.170319,0.113586l-0.170288,0.113464l-0.113495,0.170349l-0.567688,0.283813l-0.567688,0.283813l-0.113525,0.170349l-0.170258,0.113464l-0.170319,0.113525l-0.113525,0.170349l0.567627,0l0.567688,0l1.703003,0l1.702972,0l-0.113556,0.170288l-0.170288,0.113525l-0.170319,0.113525l-0.113525,0.170288l-0.113556,0.170349l-0.170258,0.113464l-0.170288,0.113586l-0.113556,0.170288l-0.113525,0.170288l-0.170288,0.113525l-0.170319,0.113525l-0.113495,0.170349l-0.113586,0.170288l-0.170258,0.113464l-0.170288,0.113586l-0.113556,0.170288l-0.567627,0.283813q-0.567688,0.283875 -10.50174,4.257446q-9.934082,3.973633 -17.597473,6.244263q-7.663391,2.270691 -21.571045,4.541321q-13.907684,2.270569 -25.828522,2.554443q-11.920898,0.283813 -21.003448,-0.567627q-9.082581,-0.851563 -11.35321,0.283752q-2.27063,1.135315 -9.08255,2.554504q-6.81192,1.419128 -17.313629,1.703003l-10.501709,0.283813l-0.113556,-0.170288l-0.170288,-0.113525l-0.170258,-0.567688l-0.113556,-0.567627l3.973602,-0.113525l3.973633,-0.170349l-0.851501,-0.283813l-0.851471,-0.283813l-1.419159,-0.283813l-1.419159,-0.283875l-1.135315,-0.283813q-1.135315,-0.283875 -11.35318,-3.122131q-10.217896,-2.838257 -24.977051,-8.231018q-14.759155,-5.392822 -22.990234,-9.082642q-8.231079,-3.689758 -17.597473,-9.366333q-9.366364,-5.676636 -17.029785,-11.637085q-7.663422,-5.960388 -13.056183,-11.920837q-5.392776,-5.960449 -7.379578,-8.060791q-1.986801,-2.157043 -2.554459,-2.043549q-0.567688,0.170258 -5.676605,-4.370972q-5.108963,-4.54129 -12.034393,-12.885925q-6.982239,-8.401337 -9.536697,-9.820496q-2.554474,-1.419159 -9.196091,-13.339996q-6.698395,-11.920837 -7.720169,-12.204681q-0.965042,-0.283844 -1.930054,-0.3974q-1.02179,-0.170288 -2.043579,-2.611237q-0.965012,-2.384125 -1.816513,-7.493103q-0.851501,-5.108917 -3.122116,-11.069366q-2.270645,-5.960419 -6.528107,-21.287231q-4.257446,-15.326843 -4.654816,-20.43576q-0.454117,-5.108917 -1.305603,-5.222473q-0.851501,-0.170288 -1.873276,-3.178925q-0.965027,-2.951813 -1.24884,-12.318176l-0.283844,-9.366394l-0.283844,-1.135315l-0.283813,-1.135345l-0.170303,-0.851471l-0.113541,-0.851471l-0.567657,0l-0.567642,0l0.11351,5.392761q0.170303,5.392761 0.340591,11.069366l0.113541,5.676544l-0.567642,0l-0.567657,0l-0.113541,-3.12207q-0.170303,-3.122162 -1.589462,-8.514923q-1.419144,-5.392761 -1.419144,-13.056213l0,-7.663391l0,-1.419128l0,-1.419159l-0.170303,0.113556l-0.11351,0.170288l-0.113541,0.170258l-0.170303,0.113586l-0.170303,1.419128l-0.113541,1.419159l-0.567657,-0.113556l-0.567657,-0.170288l0.113541,-0.170319l0.170303,-0.113525l0.283813,-1.986816q0.283844,-1.986786 0.681198,-6.81192q0.454147,-4.825104 -0.113541,-4.825104q-0.567657,0 -0.567657,-3.405975q0,-3.405914 0.851501,-3.405914q0.851501,0 0.965012,-6.244263q0.170303,-6.244263 2.157104,-16.462158q1.986832,-10.217865 3.689804,-16.462128q1.702988,-6.244263 1.419144,-6.81192q-0.283829,-0.567657 1.135315,-5.960449q1.419159,-5.392761 1.419159,-7.095734q0,-1.703003 0.965027,-3.519501q1.021774,-1.87326 2.611221,-6.017181l1.5327,-4.087158l0.170303,-0.113525l0.11351,-0.170319l0.113541,-0.170288l0.170303,-0.113556l0.170288,-1.135284l0.113541,-1.13533l-0.567673,0.113525l-0.567657,0.170303l-0.11351,0.170288l-0.170303,0.113556l-0.283844,0.567657l-0.283813,0.567627l-0.170303,0.113556l-0.113541,0.170288l-0.283829,0l-0.283829,0l-0.113541,-0.170288l-0.170288,-0.113556l-0.170303,0.113556l-0.11351,0.170288l-0.567688,0.283813l-0.567657,0.283844l-0.11351,0.170319l-0.170303,0.113525l-1.419159,3.122131q-1.419144,3.122101 -1.419144,4.825104q0,1.703003 -3.689804,12.204681q-3.689774,10.501709 -3.973618,12.204681q-0.283829,1.703003 -0.283829,3.122162l0,1.419128l0.170288,0.113556l0.113541,0.170258l0.113556,0.170319l0.170288,0.113525l0.170273,0.113556l0.113541,0.170288l-1.1353,0.170288l-1.135345,0.113525l0,0.567657l0,0.567688l-0.567657,-0.113556l-0.567657,-0.170288l-0.113525,-0.170288l-0.170303,-0.113556l-0.170288,0.113556l-0.113525,0.170288l-0.567673,0.170288l-0.567657,0.113556l0.113525,-1.419159l0.170303,-1.419159l0.283829,-1.702972q0.283844,-1.702972 3.689789,-14.475342q3.40596,-12.772339 12.204712,-30.369812l8.798721,-17.597458l0.170303,-0.113541l0.11351,-0.170288l0.113541,-0.170303l0.170303,-0.113525l0.283829,-0.567642l0.283829,-0.567657l0.170288,-0.113541l0.113541,-0.170303l0.113525,-0.170303l0.170288,-0.113541l0.170303,1.419159q0.113541,1.419144 0.681198,1.419144l0.567657,0l0.113541,-0.567657l0.170303,-0.567657l0.170288,-0.113541q0.113525,-0.170288 4.541275,-6.244263q4.371002,-6.130707 3.973618,-6.414551q-0.454117,-0.283813 -0.340607,-1.986816q0.170303,-1.702957 1.873291,-4.257431q1.702972,-2.554474 12.204697,-14.759171q10.501709,-12.204681 21.287247,-22.990234q10.785553,-10.785538 19.470734,-15.780945q8.628433,-4.938629 12.034378,-6.641617l3.405975,-1.702972l0.567688,-0.283829l0.567657,-0.283844l0.113495,-0.170303l0.170319,-0.11351l0.170288,-0.113541l0.113556,-0.170303l0.113495,-0.170303l0.170319,-0.11351l0.170319,-0.113541l0.113495,-0.170303l-0.567627,0q-0.567657,0 -1.703003,0.397354l-1.135315,0.454147l0.113556,-0.567657l0.170288,-0.567688l0.170288,-0.11351l0.113525,-0.170303l0.567657,-0.283844l0.567688,-0.283813l5.108917,-3.122147q5.108948,-3.122116 5.790131,-3.51947q0.737976,-0.454132 0.908264,-0.567673l0.113525,-0.170303l0.567657,-0.283813l0.567688,-0.283844l0.567627,-0.170303l0.567657,-0.11351l-0.113525,0.567657q-0.170288,0.567657 -0.737946,1.702957l-0.567657,1.135345l0.170288,-0.113541l0.113556,-0.170303l1.419128,-0.283813q1.419128,-0.283844 2.554474,-0.283844l1.135315,0l0.113525,0.170303l0.170319,0.113541l0.170288,-0.113541l0.113525,-0.170303l0.567657,-0.283844l0.567657,-0.283813l0.113525,-0.170288l0.170319,-0.113541l0.170288,-0.113525l0.113525,-0.170303l0.567657,-0.283829l0.567657,-0.283844l0.113556,-0.170273l0.170288,-0.113541l0.170319,-0.113541l0.113495,-0.170303l0.567688,-0.170303l0.567657,-0.11351l0,-0.567657l0,-0.567688l-2.27066,0l-2.27063,0l0,-0.851471l0,-0.851486l0.851501,-0.113541l0.851471,-0.170303l0.851501,-0.283813l0.851471,-0.283844l9.650238,-2.838303q9.650208,-2.838303 10.785553,-3.122116l1.135315,-0.283844l0.567657,-0.283813l0.567657,-0.283836l-1.419159,0q-1.419159,0 -1.702972,-0.397362l-0.283844,-0.45414l0.851501,-0.11351l0.851501,-0.170303l-0.567657,-0.170296l-0.567688,-0.113541l0,-0.567657l0,-0.567657l27.247711,-5.676605q27.24765,-5.676605 27.24765,-6.244263q0,-0.567657 5.960449,-0.851486q5.960388,-0.283836 5.960388,0.283829q0,0.567657 -0.851471,1.021782q-0.851471,0.397369 5.392792,0.113533q6.244263,-0.283829 9.08252,-0.851486q2.838318,-0.567657 3.122162,-0.737953zm-79.075012,15.099754q-0.113556,-0.170296 0,-0.340599q0.170258,-0.113541 0.170258,0.170303q0,0.283813 -0.170258,0.170296zm197.715973,193.117905l0,3.973663l0.170258,-0.113556l0.113556,-0.170288l0.113525,-0.170319l0.170288,-0.113495l0.170319,-0.113556l0.113525,-0.170288l0.113556,-0.170319l0.170258,-0.113525l0.283844,-0.567657l0.283844,-0.567657l0.283813,-1.135315l0.283813,-1.135345l0.283844,-2.554443l0.283844,-2.554474l0.170288,-0.113525l0.113556,-0.170319l0.113525,-0.170288l0.170258,-0.113525l0.283844,-0.567688l0.283844,-0.567627l0.283844,-0.567657l0.283844,-0.567657l0,2.554443l0,2.554474l-0.851532,1.986816q-0.851471,1.986816 -1.135315,16.178314q-0.283844,14.191528 -0.851471,19.016602q-0.567688,4.825134 -0.283844,16.178284q0.283844,11.353241 1.986786,22.990295q1.703003,11.636993 4.541321,21.287201q2.838257,9.650238 3.235657,11.069366q0.454102,1.419159 -0.227112,1.703003q-0.737915,0.283844 0.3974,2.554474q1.135315,2.27063 1.532715,4.087189q0.454102,1.87326 1.02179,2.043518q0.567627,0.113525 1.248779,4.654816q0.737976,4.54129 1.021851,5.392761l0.283813,0.851532l0.170288,0.113525l0.113525,0.170258l0.567627,0.283844l0.567688,0.283844l0.567627,0.170258l0.567688,0.113586l-0.113525,-0.567688l-0.170288,-0.567627l-0.170288,-0.113556q-0.113586,-0.170288 -0.567688,-0.908234l-0.397339,-0.681213l0,-0.567657l0,-0.567657l0.170288,0.113525l0.113525,0.170288l0.113525,0.170319l0.170349,0.113525l0.170288,0.113556l0.113464,0.170258l0.113586,0.170288l0.170288,0.113556l0.283813,0.567627l0.283875,0.567688l0.170288,0.113525l0.113525,0.170319l0.113525,0.170288l0.170288,0.113556l1.986816,3.122101q1.986816,3.122131 1.816528,3.576263q-0.113525,0.397339 -0.794739,0.567657q-0.737915,0.113525 -0.454102,0.397369q0.283813,0.283844 0.567627,3.122131l0.283813,2.838318l0.170288,0.113495l0.113586,0.170349l0.113525,0.170258l0.170288,0.113525l0.170288,0.113556l0.113525,0.170288l0.113586,0.170258l0.170227,0.113586l0.170288,0.567627l0.113586,0.567688l0.567627,0l0.567688,0l-0.113525,-0.567688q-0.170349,-0.567627 -0.454163,-1.419098l-0.283813,-0.851532l-0.170288,-0.113525l-0.113525,-0.170319l0.567627,0l0.567688,0l0.567688,0.283844l0.567627,0.283844l0.113525,0.170258l0.170288,0.113586l3.122131,4.541229q3.122131,4.54129 3.405945,5.108978l0.283875,0.567627l0.170227,0.113586l0.113586,0.170258l0.113525,0.170288l0.170288,0.113556l0.283813,0.567627l0.283875,0.567688l0.170288,0.113525l0.113525,0.170319l0.113586,0.170258l0.170227,0.113586l0.170288,0.567627l0.113586,0.567688l-0.567688,0l-0.567688,0l-0.113525,-0.567688l-0.170288,-0.567627l-0.170288,-0.113586l-0.113525,-0.170258l-0.567688,-0.283844q-0.567627,-0.283844 -0.85144,-0.567688l-0.283875,-0.283783l-0.113525,-0.170319l-0.170288,-0.113525l-0.170288,-0.113556l-0.113525,-0.170288l-0.113525,-0.170258l-0.170288,-0.113586l-0.170349,-0.113495l-0.113525,-0.170349l-0.113525,-0.170258l-0.170288,-0.113525l-0.170288,0.113525l-0.113586,0.170258l-0.113464,0.170349l-0.170288,0.113495l0,0.567688l0,0.567627l0.170288,0.113586l0.113464,0.170258l0.113586,0.170319l0.170288,0.113525l0.170288,0.113525l0.113525,0.170319l0.113525,0.170258l0.170349,0.113586l0.170288,0.113495l0.113525,0.170288l0.113525,0.170319l0.170288,0.113525l0.170288,0.113556l0.113525,0.170288l0.113586,0.170258l0.170288,0.113586l0.170227,0.113495l0.113586,0.170319l0.113525,0.170288q0.170288,0.113525 2.157104,2.384186q1.986816,2.27063 1.135315,4.825104q-0.851501,2.554443 -9.366394,10.785522q-8.514893,8.231079 -12.091187,11.182922q-3.51947,3.008575 -8.514832,6.584839q-4.93866,3.519531 -14.191528,8.742004q-9.196106,5.279175 -15.440338,8.968994q-6.244293,3.689819 -13.907684,6.528076q-7.663422,2.838318 -12.204681,3.973633l-4.54129,1.135315l-0.851471,0.283875l-0.851501,0.283813l1.702972,0.283813l1.703003,0.283813l-0.113556,0.170349l-0.170288,0.113464l-0.170288,0.113586l-0.113556,0.170288l-0.851471,0.283813l-0.851532,0.283813l-1.702942,0q-1.702972,0 -4.427765,-0.737915q-2.667969,-0.681213 -6.81192,-0.227051q-4.087128,0.397339 -4.370972,1.702942q-0.283844,1.24884 -4.257446,2.27063l-3.973633,0.965088l-2.838287,0l-2.838318,0l0.113525,-0.170349l0.170319,-0.113525l0.170288,-0.113586l0.113556,-0.170227l0.567627,-0.283875l0.567688,-0.283813l1.419159,-0.283813l1.419159,-0.283813l0.851471,-0.170349l0.851471,-0.113525l0,-0.567688l0,-0.567627l-1.135315,0.113525l-1.135315,0.170349l-0.851471,0.283752l-0.851532,0.283875l-0.851471,0.283813q-0.851471,0.283875 -1.986816,0.567688q-1.135315,0.283813 -5.392792,-0.113586q-4.257446,-0.454102 -4.257446,0.113586q0,0.567627 -4.825073,1.419189q-4.825134,0.85144 -4.14389,2.270569q0.737885,1.419189 -0.567688,1.873291q-1.248871,0.397339 -14.872711,0.681213q-13.62384,0.283813 -20.719604,-1.135315l-7.095734,-1.419189l-0.851471,-0.283813l-0.851501,-0.283813l1.419128,-0.283813q1.419159,-0.283875 0.851501,-0.567688q-0.567657,-0.283813 0,-0.567688l0.567657,-0.283752l-0.113525,-0.170349l-0.170288,-0.113525l-0.170288,-0.113586l-0.113556,-0.170227l-1.702972,-0.283875q-1.702972,-0.283813 -5.960419,-0.85144l-4.257477,-0.567688l-1.135315,-0.283875l-1.135315,-0.283752l0.567657,-0.170349l0.567657,-0.113525l0,-0.567688l0,-0.567627l0.567657,0.113525l0.567657,0.170288l0.851501,0.283813l0.851501,0.283875l1.703003,0.283813q1.702942,0.283875 4.825073,0.567627l3.122131,0.283875l1.135315,0l1.135345,0l0.113525,-0.170288l0.170288,-0.113586l0.170288,-0.113464l0.113556,-0.170288l-1.986816,-0.283875l-1.986816,-0.283813l-1.702972,-0.283875q-1.702972,-0.283813 -19.584259,-3.12207l-17.881287,-2.838318l-0.567688,-0.283813l-0.567657,-0.283875l-0.851471,-0.283813l-0.851501,-0.283813l-0.851501,-0.283813l-0.851471,-0.283875l-0.113556,-0.170288l-0.170258,-0.113525l-0.170319,-0.113525l-0.113525,-0.170288l0.567657,0l0.567657,0l1.419128,0.283813l1.419159,0.283813l1.419159,0.283875q1.419159,0.283813 3.689789,0.454102l2.27066,0.113525l0,-0.851501l0,-0.851501l-1.135345,-0.113525l-1.135315,-0.170227l-1.419159,-0.283875q-1.419128,-0.283813 -2.554443,-0.567688q-1.135345,-0.283813 -4.54129,-2.384155q-3.405975,-2.157104 -3.519501,-2.724731q-0.170288,-0.567688 -8.514893,-4.087219q-8.401367,-3.576172 -8.401367,-5.108887q0,-1.589478 -0.567657,-1.703003q-0.567657,-0.170288 -6.528107,-3.576233q-5.960419,-3.405975 -8.514893,-4.825134q-2.554474,-1.419159 -7.379578,-5.392761q-4.825134,-3.973602 -6.414581,-6.073975l-1.532654,-2.157104l-0.170319,-0.113556l-0.113525,-0.170258l-0.851471,-0.170288q-0.851501,-0.113556 -0.283844,0.908234q0.567657,0.965027 -1.702972,-0.170288l-2.27063,-1.135315l-0.113556,-0.170319l-0.170288,-0.113525l-0.170319,-0.113556l-0.113495,-0.170258l-0.113556,-0.170288l-0.170288,-0.113556l-0.170319,-0.113525l-0.113525,-0.170319l-0.567657,-0.283783l-0.567657,-0.283844l-0.11351,-0.170319l-0.170303,-0.113525l-0.170303,-0.113525l-0.113541,-0.170319l-0.113541,-0.170288l-0.170303,-0.113556l-0.170288,-0.113525l-0.113525,-0.170258l-0.113541,-0.170319l-0.170303,-0.113525l-0.170288,-0.113556l-0.113525,-0.170288l0.567657,0l0.567657,0l0.567657,0.283844l0.567657,0.283844l0.851501,0l0.851501,0l1.135284,-0.283844l1.135345,-0.283844l-0.113525,-0.170258q-0.170319,-0.113586 -1.475922,-0.794769l-1.24884,-0.737976l1.135315,0l1.135284,0l6.81192,-0.737946q6.811951,-0.681183 7.095764,-1.362396q0.283844,-0.737946 0.851501,-1.021729l0.567657,-0.283844l1.135315,0l1.135315,0l0.567657,0l0.567657,0l0.851501,0l0.851501,0l-0.567688,0.283844l-0.567657,0.283783l-0.567657,0.283844l-0.567657,0.283844l-0.113525,0.170258l-0.170288,0.113586l-0.170319,0.113495l-0.113525,0.170319l-1.135315,0.283813q-1.135315,0.283844 -5.960419,1.135315l-4.825134,0.851501l-0.851471,0.283844l-0.851471,0.283783l-0.113556,0.170349l-0.170288,0.113495l0,0.567688l0,0.567627l0.170288,0.113556l0.113556,0.170288l0.113495,0.170319l0.170319,0.113525l0.170288,0.113525l0.113556,0.170319l0.283813,0l0.283844,0l0.567627,-0.283844l0.567657,-0.283844l0.851501,-0.283844l0.851501,-0.283783l9.082581,-2.554504q9.08252,-2.554474 9.934021,-2.838257l0.851501,-0.283844l0.851501,-0.283844l0.851471,-0.283844l0.851501,0l0.851471,0l-0.567657,0.283844l-0.567657,0.283844l-0.567657,0.283844q-0.567657,0.283783 -1.135315,0.567627l-0.567657,0.283844l-0.113556,0.170258l-0.170288,0.113586l-0.170288,0.113495l-0.113525,0.170319l0.851471,0l0.851501,0l8.231049,-3.122131q8.231079,-3.122131 9.082581,-3.405975l0.851501,-0.283844l0.567657,-0.283783l0.567657,-0.283844l0.567657,0l0.567657,0l-1.02179,0.965027q-0.965027,1.021759 -1.135315,1.135315l-0.113525,0.170288l0.567657,0l0.567657,0l0.567657,-0.283844l0.567657,-0.283813l0.851471,-0.283813q0.851501,-0.283844 2.554504,-0.851532q1.702972,-0.567627 7.947235,-4.257416q6.244263,-3.689819 23.557892,-15.440399q17.313599,-11.807312 17.313599,-12.658783q0,-0.851471 0.567688,-0.851471q0.567657,0 0.567657,-0.567688q0,-0.567688 0.567657,-0.454102q0.567657,0.170258 1.589447,-0.567688l0.964996,-0.681183l0.170288,-0.113525l0.113556,-0.170319l-0.113556,-0.170288l-0.170288,-0.113525l-0.170258,-0.113556l-0.113556,-0.170258l0.113556,-0.170288l0.170258,-0.113556l0.170288,-0.113525l0.113556,-0.170319l0.113525,-0.170288l0.170319,-0.113495l0,-0.567688q0,-0.567688 -1.305634,-0.113586l-1.24884,0.39743l0.113525,-0.170349l0.170319,-0.113495l0.170258,-0.113586l0.113556,-0.170258l0.567657,-0.283844l0.567657,-0.283783l0.113556,-0.170319q0.170258,-0.113525 0.908234,-0.567657q0.681183,-0.3974 8.174316,-7.379578l7.549866,-6.925446l0.170258,-0.113556l0.113586,-0.170288l0.113495,-0.170319l0.170349,-0.113525l0.170258,-0.113556l0.113556,-0.170288l0.113525,-0.170258l0.170288,-0.113556l0.170319,-0.113525l0.113525,-0.170288l0.113556,-0.170319l0.170258,-0.113525l0.170288,-0.567657l0.113556,-0.567627l-1.135315,0.113495q-1.135345,0.170288 -1.702972,0.454132l-0.567688,0.283844l-0.113525,0.170258l-0.170319,0.113556l0,-0.567657l0,-0.567627l0.283844,-0.567688l0.283844,-0.567688l0.170258,-0.113525l0.113586,-0.170258l0.113525,-0.170319l0.170319,-0.113525l0.283783,-0.567688q0.283844,-0.567627 0.567688,-1.135315l0.283844,-0.567657l0.170258,-0.113525l0.113556,-0.170288l2.724762,-1.532715q2.66803,-1.589417 2.66803,-1.021729q0,0.567627 0,1.702942l0,1.135315l0.170258,-0.113525l0.113525,-0.170288l0.113556,-0.170319l0.170288,-0.113525l0.170319,-0.113556l0.113525,-0.170258l0.113495,-0.170288l0.170319,-0.113556l0.283844,-0.567627q0.283813,-0.567688 3.973633,-6.528137l3.689758,-5.960388l0.283844,-0.851532l0.283844,-0.851471l0,-0.567688l0,-0.567627l-0.170319,0.113525l-0.113525,0.170319l-0.113556,0.170288l-0.170288,0.113495l-0.283844,0.283844q-0.283813,0.283844 -0.454102,1.135315l-0.113525,0.851532l-0.567657,0l-0.567688,0l0.113556,-0.567688l0.170288,-0.567627l0.283844,-0.567688l0.283813,-0.567688l0.170288,-0.113495l0.113556,-0.170288l0.113525,-0.170319l0.170288,-0.113525l0.283813,-0.567688q0.283844,-0.567627 0.567688,-1.135315q0.283844,-0.567627 3.689789,-4.825073q3.405975,-4.257446 5.960449,-8.231079q2.554443,-3.973663 5.7901,-14.759186q3.292419,-10.785522 3.860107,-10.785522q0.567627,0 3.860046,-15.89447q3.235718,-15.894501 3.519501,-27.815338q0.283844,-11.920868 -0.681183,-12.942657q-1.021759,-0.965027 -0.908234,-10.444946l0.170258,-9.536682l0.170349,0.113525l0.113495,0.170288l0.113586,0.170288l0.170258,0.113556l0.283844,0.567657q0.283844,0.567657 0.567627,1.135315l0.283844,0.567657l0.283844,0.567657l0.283844,0.567657l0,-2.554443q0,-2.554474 -0.851532,-10.217896q-0.851471,-7.663422 -3.973602,-22.990234q-3.122101,-15.326828 -7.379547,-25.260864l-4.257477,-9.934067l-0.283813,-0.567657l-0.283844,-0.567642l-0.283844,-0.567657l-0.283783,-0.567657l-0.170349,-0.113541l-0.113495,-0.170303l-0.567688,-0.170303l-0.567627,-0.11351l0,1.135315l0,1.1353l-0.567688,0.113541l-0.567688,0.170303l-0.113495,0.170303l-0.170288,0.11351l0,0.567688l0,0.567657l0.170288,0.11351l0.113495,0.170303l0.113586,0.170303l0.170258,0.113541l0.170319,0.11351l0.113525,0.170303l2.157104,4.370987q2.100342,4.427765 5.108917,14.64563q2.951874,10.21788 3.633087,10.501724q0.737946,0.283813 0.908234,4.370972q0.113495,4.143906 -0.454132,4.314224q-0.567688,0.113525 1.021759,7.493103q1.532715,7.379578 1.816559,8.798737l0.283783,1.419128l0.283844,1.703003l0.283844,1.702972l0,0.283844l0,0.283813l-0.170288,0.113525l-0.113556,0.170319l-0.113525,0.170288l-0.170319,0.113525l-0.170288,-0.113525l-0.113495,-0.170288l-0.113586,-0.170319l-0.170258,-0.113525l-0.283844,-0.851471l-0.283844,-0.851501l-0.283783,-0.851501l-0.283844,-0.851501l-0.283844,-1.135315q-0.283844,-1.135284 -3.292419,-16.462128q-2.951874,-15.326828 -3.973602,-15.042984q-0.965057,0.283813 -3.519501,-6.81192q-2.554474,-7.095764 -8.231079,-19.58429q-5.676605,-12.48851 -17.029816,-28.099167l-11.35321,-15.610641l-0.170288,-0.113541l-0.113525,-0.170288l-0.113556,-0.170303l-0.170258,-0.113525l-0.170349,-0.113541l-0.113495,-0.170288l-0.113525,-0.170303l-0.170319,-0.113541l0.283844,0.851501q0.283844,0.851486 0.454102,1.419144l0.113556,0.567657l-0.567657,0l-0.567688,0l-0.113525,-0.567657l-0.170258,-0.567657l-0.170319,-0.113541l-0.113525,-0.170303l-0.113556,-0.170288l-0.170288,-0.113525l-0.283844,-0.851486q-0.283844,-0.851501 -1.986786,-3.689804q-1.702972,-2.838272 -4.371002,-4.654816q-2.724762,-1.87326 -5.279236,-3.40596q-2.554474,-1.589447 -2.554474,-2.157104q0,-0.567657 -6.81192,-4.654816l-6.81192,-4.143906l-0.851471,-0.283813l-0.851471,-0.283844l-0.567688,-0.283844l-0.567657,-0.283813l-0.113556,-0.170303l-0.170258,-0.113541l-0.170319,-0.11351l-0.113525,-0.170303l1.986816,-0.283829l1.986786,-0.283844l1.248871,-0.397354q1.305603,-0.454117 1.475891,-0.908264q0.113556,-0.397354 1.248871,-0.567657q1.135315,-0.113541 1.419159,0.340607q0.283813,0.397354 1.135315,-0.170303q0.851471,-0.567657 9.08255,-0.567657q8.231079,0 10.501709,0.567657q2.27063,0.567657 6.130737,0.397354q3.803345,-0.113541 4.200684,-1.248856q0.454132,-1.1353 2.724792,-1.24884q2.27063,-0.170303 14.759155,1.1353q12.488525,1.248856 12.772369,0.567688q0.283783,-0.737961 12.204681,0.965012q11.920837,1.702988 17.313599,2.440948q5.392761,0.681198 5.676605,0.227051q0.283844,-0.397354 9.366394,3.860107q9.082581,4.257431 21.571045,10.501694q12.488525,6.244263 21.287292,11.637024q8.798737,5.392761 18.903046,13.510315q10.047607,8.060776 16.29187,14.305038q6.244263,6.244263 11.35321,12.772339q5.108887,6.528107 4.938599,7.209305q-0.113464,0.737946 -1.930054,-0.794739q-1.87323,-1.589462 -1.135315,-0.340607q0.681213,1.305634 9.309631,8.855515q8.685242,7.493103 8.85553,8.06076q0.113525,0.567657 -5.449524,4.257462q-5.506348,3.689774 -13.169739,11.35318q-7.663391,7.663406 -13.907654,16.462143q-6.244263,8.798737 -12.7724,23.557892q-6.528076,14.759155 -7.663391,17.881287q-1.135284,3.122131 -1.135284,7.095734zm-122.784851,-8.798706l-0.113586,7.663422l0.567688,-0.113556l0.567627,-0.170288l0.113586,-0.170288l0.170258,-0.113525l0.170319,-0.113556l0.113525,-0.170288l0.113556,-0.170288l0.170288,-0.113525l0.283844,0.567657l0.283783,0.567657l0.170319,-0.113556l0.113525,-0.170288l0.851532,-0.170288l0.851471,-0.113525l0,-0.567657l0,-0.567657l-0.567688,0l-0.567627,0l0.113495,-3.122162q0.170349,-3.122101 0.908295,-8.231049q0.681183,-5.108948 -0.170319,-5.108948q-0.851471,0 -0.737976,-1.419128q0.170349,-1.419159 1.135315,-2.440948q1.02179,-0.965027 0.908295,-4.54129l-0.170319,-3.519501l-0.283813,-1.135315l-0.283844,-1.135315l-0.170319,-1.135315l-0.113495,-1.135315l0.567657,0.113525l0.567627,0.170288l0.113586,0.170288l0.170258,0.113556l0.170288,0.113525l0.113556,0.170288l0.113525,0.170288l0.170319,0.113556l0.283783,0.567657l0.283844,0.567657l0.170288,9.08255q0.113556,9.082581 1.135345,8.798737q0.964996,-0.283813 0.681213,4.54129q-0.283844,4.825104 -2.554474,19.016602q-2.27066,14.191528 -3.122131,16.178314q-0.851532,1.986816 -1.135315,2.554443l-0.283844,0.567688l-0.170288,0.567688q-0.113556,0.567627 0.454132,0.567627q0.567627,0 1.021729,-0.851471q0.39743,-0.851532 0.39743,0l0,0.851471l-0.965057,1.589417q-1.02179,1.532715 -1.589478,1.703003q-0.567627,0.113556 -1.021729,5.506317q-0.397369,5.392761 -0.681213,6.244232l-0.283844,0.851532l-0.170258,0.113525l-0.113556,0.170258l-0.113525,0.170319l-0.170319,0.113525l-0.170288,0.851471l-0.113525,0.851532l0.567657,-0.113586q0.567657,-0.170258 0.851501,-1.135284l0.283783,-1.021759l0.567688,0l0.567627,0l-0.113495,0.567627l-0.170288,0.567688l-0.283844,0.567627l-0.283844,0.567688l-1.135315,2.838287q-1.135284,2.838318 -1.305634,3.405945q-0.113495,0.567688 -1.702942,1.135345q-1.532715,0.567657 -4.938629,7.379578q-3.406006,6.81189 -7.549896,11.466705q-4.087158,4.711578 -7.493134,6.414581q-3.405945,1.702972 -3.860077,2.66803q-0.397369,1.021729 -0.794739,2.838287q-0.454102,1.87326 -6.017181,6.584839q-5.506287,4.654816 -5.790131,6.357819q-0.283813,1.702942 -7.379578,7.663361q-7.095764,5.960449 -7.266022,6.81192q-0.113556,0.851532 -4.087158,2.66803q-3.973663,1.873291 -7.379608,3.292419q-3.405945,1.419159 -17.597443,7.663391q-14.191498,6.244293 -22.422577,7.663452q-8.231079,1.419159 -13.056183,1.419159l-4.825104,0l-0.851501,-0.283844l-0.851471,-0.283844l0.567627,-0.283844q0.567657,-0.283844 1.419159,-0.567627l0.851501,-0.283844l0.113525,-0.170288l0.170288,-0.113556l0.170288,-0.567688l0.113556,-0.567627l-1.135315,0.113525l-1.135345,0.170319l-0.851471,0.283783q-0.851471,0.283844 -2.27063,0.851532q-1.419159,0.567627 -7.663422,3.689758q-6.244263,3.122162 -8.514908,3.406006q-2.270615,0.283844 -9.934036,-2.270691q-7.663406,-2.554443 -13.907669,-13.907654l-6.244263,-11.35318l-0.113525,-0.170319l-0.170303,-0.113525l-0.283829,-0.567657l-0.283844,-0.567657l-0.170303,-0.113556l-0.11351,-0.170258l-0.113541,-0.170288l-0.170303,-0.113556l-0.170303,-0.113525l-0.11351,-0.170319l-0.113541,-0.170288l-0.170303,-0.113495l-0.170303,-0.113586l-0.11351,-0.170258l-0.113541,-0.170349l-0.170303,-0.113495l-0.170288,-0.113525l-0.113541,-0.170319l-0.113525,-0.170288l-0.170303,-0.113556l-0.170288,0.113556l-0.113541,0.170288l-0.113525,0.170319l-0.170288,0.113525l0,0.851471l0,0.851501l0.170288,0.113525l0.113525,0.170319l0.113541,0.170288l0.170288,0.113525l0.283829,0.283813q0.283829,0.283844 0.567673,0.851532l0.283813,0.567627l0.283844,0.567688l0.283813,0.567627l0.170303,0.567688l0.113541,0.567627l-0.567657,-0.113525l-0.567657,-0.170258l-0.567673,-0.170319l-0.567657,-0.113525l-0.113525,-0.567688l-0.170288,-0.567627l-0.283844,-1.135315q-0.283844,-1.135345 -0.454147,-1.248871q-0.11351,-0.170288 -4.200668,-4.54129q-4.143906,-4.427734 -6.414566,-10.671967q-2.270645,-6.244293 -5.960419,-18.165131q-3.689804,-11.920898 -5.392761,-20.151978q-1.702988,-8.231079 -1.986816,-20.719604q-0.283829,-12.488464 -1.13533,-15.042969q-0.851501,-2.554474 -0.283813,-4.825104q0.567657,-2.270599 1.702972,-8.231049q1.1353,-5.960419 0.283829,-8.514923q-0.851486,-2.554443 -0.454132,-3.008575q0.454132,-0.397369 1.475906,-2.27063q0.965042,-1.816528 3.803345,-12.318237q2.838303,-10.501709 3.122116,-13.62384l0.283844,-3.122131l0,-1.702972l0,-1.703003l-0.283844,0.567657l-0.283813,0.567688l-0.170303,0.113525l-0.113541,0.170288l-0.113541,0.170288l-0.170303,0.113556l-0.283813,0.283813q-0.283844,0.283844 -0.567657,0.851501l-0.283829,0.567657l-0.170303,0.113525l-0.113541,0.170319l-0.113525,0.170258l-0.170288,0.113556l-0.170303,0.113525l-0.113541,0.170319l-0.567657,0l-0.567657,0l0.113541,-0.170319l0.170303,-0.113525l0.283813,-0.851471l0.283844,-0.851501l0.283813,-0.851501l0.283844,-0.851501l0.283813,-0.851471q0.283844,-0.851501 1.702988,-4.54129l1.419159,-3.689758l0.283829,-0.567688l0.283813,-0.567657l0.283844,-0.567657l0.283813,-0.567657l0.283844,-0.567657l0.283813,-0.567657l0.283844,0.851471l0.283844,0.851501l0.170288,0.113525l0.113525,0.170319l-0.113525,0.170258l-0.170288,0.113556l-0.170303,0.113525l-0.113541,0.170319l-0.113541,0.170288l-0.170303,0.113525l-0.170303,0.113525l-0.11351,0.170319l-0.113541,0.170288l-0.170303,0.113556l-0.170288,0.567627q-0.113525,0.567657 0.340591,0.851501q0.397354,0.283813 0.113541,1.135315l-0.283844,0.851501l-0.283813,0.851471l-0.283844,0.851501l-0.170288,0.567657l-0.113525,0.567657l0.567657,0l0.567657,0l0.11351,-0.851471l0.170303,-0.851501l0.283844,-0.567657l0.283844,-0.567657l0.283813,-0.851501q0.283844,-0.851501 1.816513,-3.576263l1.589447,-2.667999l0.113541,-0.170288l0.170303,-0.113556l0.283813,-0.567657l0.283829,-0.567657l0,-0.567657l0,-0.567627l-0.170288,0.113525l-0.113541,0.170288l-0.681183,0.737946q-0.737976,0.681183 -0.908279,0.794739l-0.11351,0.170288l-0.113541,0.170288l-0.170303,0.113525l0,-0.851471l0,-0.851501l0.170303,-0.113525l0.113541,-0.170288l0.567657,-0.283813l0.567657,-0.283844l0.113541,-0.170319q0.170303,-0.113495 2.611237,-0.964996l2.384171,-0.851501l0.11351,-0.567657l0.170303,-0.567657l0.283844,-0.851501l0.283844,-0.851501l0.170288,-1.135284l0.113525,-1.135345l-0.567657,-0.113525l-0.567657,-0.170288l-0.567657,-0.170319l-0.567673,-0.113525l-0.113525,0.567657l-0.170303,0.567688l-0.283829,0.567657q-0.283813,0.567627 -0.567657,1.135284l-0.283813,0.567657l-0.283844,0.851501l-0.283844,0.851501l0,-2.838318l0,-2.838287l0.170303,-0.567657l0.113541,-0.567657l-0.567657,0l-0.567657,0l-0.113541,0.851471l-0.170303,0.851501l-0.283829,1.135345l-0.283813,1.135284l-0.567657,0.851501q-0.567688,0.851471 -0.737991,0.965027l-0.11351,0.170288l-0.113541,0.170319l-0.170303,0.113525l-0.283813,0.567657l-0.283844,0.567657l-0.170288,0.113525l-0.113525,0.170319l-0.113541,0.170258l-0.170303,0.113556l-0.170288,0.851501l-0.113541,0.851501l-0.567657,0l-0.567657,0l0.113541,-0.567657l0.170303,-0.567688l0.283813,-0.567657l0.283844,-0.567657l0.283813,-0.851501l0.283829,-0.851501l0.283844,-0.567657q0.283813,-0.567657 0.567657,-1.135315q0.283813,-0.567627 3.973618,-6.81189q3.689804,-6.244278 4.257462,-8.514923q0.567642,-2.27063 1.532654,-2.27063q1.021805,0 1.135345,-1.13533q0.170303,-1.135315 2.611221,-6.244263q2.384186,-5.108917 2.951843,-5.108917q0.567657,0 2.951813,-3.689804q2.440948,-3.689804 7.720184,-10.047577q5.222488,-6.414566 14.305023,-14.64563q9.082565,-8.231079 11.069382,-9.934067q1.986801,-1.702972 7.549896,-6.073944l5.506271,-4.42775l0.170319,-0.113541l0.113525,-0.170303l0.113525,-0.170288l0.170288,-0.113525l0.170288,-0.113541l0.113556,-0.170288l0.113556,-0.170303l0.170288,-0.113541l0.170288,-0.113525l0.113525,-0.170288l0.113525,-0.170303l0.170319,-0.113541l0.170288,-0.11351l0.113525,-0.170303l0.113525,-0.170303l0.170319,-0.113541l0.170288,-0.11351l0.113556,-0.170334l0.113495,-0.170288l0.170319,-0.113525l0.170288,0.113525l0.113556,0.170288l0.113495,0.170334l0.170319,0.11351l0.170288,0.113541l0.113556,0.170303l0.113495,0.170303l0.170319,0.11351l0,1.13533l0,1.135315l-0.170319,0.113541l-0.113495,0.170303l-0.113556,0.170303l-0.170288,0.11351l-0.283813,0.567657l-0.283844,0.567657l-0.170319,0.113541l-0.113495,0.170288l-0.567688,0.170303q-0.567657,0.113541 -0.681183,-0.454132q-0.170288,-0.567657 -1.305634,1.13533q-1.135315,1.702972 -6.982208,4.654816q-5.790131,3.008606 -6.471329,4.314209q-0.737946,1.248856 0,0.965012q0.681198,-0.283813 0.567657,0.567688q-0.170288,0.851471 -1.87326,3.40596l-1.702988,2.554459l-0.283829,0.567657l-0.283829,0.567657l-0.283844,0.567657l-0.283813,0.567673l-0.283844,0.567657l-0.283813,0.567657l-0.170303,0.11351l-0.113541,0.170303l0.113541,0.170319l0.170303,0.113525l0.170303,0.113541l0.11351,0.170288l0.851501,0l0.851486,0l0.113525,-0.170288l0.170288,-0.113541l0.283844,-0.567657l0.283844,-0.567657l0.283813,-0.567657l0.283844,-0.567673l0.397354,-0.681183q0.454147,-0.737976 3.576263,-2.157104q3.122116,-1.419144 6.641602,-4.995407q3.576263,-3.519501 3.973633,-2.838303q0.454132,0.737946 2.157104,-0.113541q1.703003,-0.851501 4.825104,-3.40596q3.122131,-2.554459 3.689789,-2.724762q0.567657,-0.113541 0.567657,-1.13533q0,-0.965027 4.825134,-3.235672q4.825104,-2.270615 4.257446,-2.440918q-0.567657,-0.113541 -0.567657,-0.681198q0,-0.567657 7.095734,-5.563065q7.095764,-4.938644 7.20929,-5.108948l0.170319,-0.113525l0.170288,-0.113541l0.113525,-0.170288l0.113525,-0.170303l0.170319,-0.113541l0.170288,-0.11351l0.113525,-0.170303l0.113525,-0.170303l0.170288,-0.113541l0.170319,-0.11351l0.113525,-0.170303l0.567657,-0.170303l0.567657,-0.113541l-0.681183,1.419159q-0.737976,1.419144 -0.737976,1.986801l0,0.567657l0.170319,-0.11351l0.113525,-0.170303l0.567657,-0.283844l0.567657,-0.283813l3.973633,-1.419159q3.973602,-1.419144 3.405945,-1.589447q-0.567657,-0.113541 -0.567657,-0.681198q0,-0.567657 2.838318,-2.157104q2.838287,-1.532684 5.676605,-1.532684q2.838287,0 2.27063,-0.567657q-0.567657,-0.567657 1.816528,0.737946q2.440918,1.248856 3.178864,1.930054q0.681213,0.737961 -3.860077,0q-4.54129,-0.681198 -4.54129,0.340607q0,0.965012 4.54129,1.816498q4.54129,0.851501 5.392761,1.419159q0.851501,0.567657 -0.397369,0.965012q-1.305603,0.454132 0.794739,1.475937q2.157104,0.965012 4.143921,2.100311q1.986786,1.135345 2.838287,1.986832q0.851501,0.851471 -0.283813,1.021774q-1.135345,0.113541 0.567657,2.384186q1.702972,2.27063 3.519501,2.838287q1.87326,0.567673 8.117523,6.811935q6.244263,6.244247 8.117523,9.366379q1.816528,3.122131 2.951843,2.838303q1.135315,-0.283829 1.589447,0.851501q0.397369,1.135315 0.227081,0q-0.113556,-1.13533 0.454102,-1.13533q0.567688,0 3.122162,6.130737q2.554443,6.073944 3.122101,6.244247q0.567657,0.113541 1.135345,-1.135315q0.567657,-1.305618 1.589417,-0.908264q0.965057,0.454117 0.794739,2.27066q-0.113525,1.87326 -1.135315,2.270615q-0.965027,0.454147 1.475922,3.973618q2.384155,3.576279 2.951843,3.746582q0.567627,0.11351 0.851471,-0.340591q0.283844,-0.397385 2.100342,6.584824q1.87326,6.925461 3.860107,9.763763q1.986786,2.838303 6.130707,17.143341q4.087128,14.361786 5.222443,14.759186q1.135376,0.454102 1.419159,4.995361q0.283844,4.54129 -0.283783,4.54129q-0.567688,0 -0.851532,-0.681183q-0.283844,-0.737946 -0.737946,-0.567688q-0.397369,0.113556 -0.397369,11.75058q0,11.637024 -0.170258,19.300446zm201.973419,100.191986l-0.283875,0.567688l-0.283813,0.851471l-0.283813,0.851501l-0.170288,-0.113556l-0.113525,-0.170288l-0.113525,-0.170319l-0.170349,-0.113525l0,-0.567657l0,-0.567627l0.283875,-0.567688q0.283813,-0.567627 0.283813,-1.703003l0,-1.135315l-0.170288,0.113586l-0.113525,0.170258l-0.113525,0.170288l-0.170349,0.113556l-0.283813,0.567627l-0.283813,0.567688l-0.283813,0.851471l-0.283875,0.851532l-0.283813,0.851471l-0.283813,0.851501l0.283813,4.825104q0.283813,4.825134 0.454102,4.711548q0.113586,-0.170258 0.681213,-0.170258l0.567688,0l-0.113525,0.170258l-0.170349,0.113586l-0.283813,0.851471l-0.283813,0.851471l-0.170288,0.113556l-0.113525,0.170258l-0.113586,0.170288l-0.170288,0.113556l-0.283813,0.567688l-0.283813,0.567627l-0.170288,0.113586l-0.113525,0.170258l-0.113586,0.170288l-0.170288,0.113556l-0.170288,0.113525l-0.113525,0.170258l-0.113525,0.170319l-0.170349,0.113525l-0.283752,-0.567627l-0.283875,-0.567688l-0.283813,-2.838287l-0.283875,-2.838318l-0.170227,-0.113495l-0.113586,-0.170349l-0.567627,-0.170258l-0.567688,-0.113525l0,1.419159l0,1.419159l-0.567627,0.113495l-0.567688,0.170288l-1.419128,0.3974q-1.419189,0.454102 -2.100342,3.008575q-0.737976,2.554474 -1.135315,3.008575q-0.454163,0.397369 -1.475952,0.567688q-0.965027,0.113525 -1.702942,2.667969q-0.681213,2.554474 -1.362427,3.122162q-0.737976,0.567657 -1.135315,1.816498q-0.454102,1.305634 -1.475891,2.043579q-0.965027,0.681213 -1.24884,2.951843q-0.283813,2.270599 -0.567688,3.405975l-0.283813,1.135315l-0.170288,0.113495l-0.113586,0.170349l-0.113525,0.170258l-0.170227,0.113525l-0.283875,-0.567627l-0.283813,-0.567688l-0.170288,-0.113525l-0.113586,-0.170319l-0.567627,-0.283783l-0.567688,-0.283844l-1.135254,-0.170319q-1.135315,-0.113525 -1.135315,0.454163l0,0.567627l-0.567688,-0.113525q-0.567688,-0.170319 -0.454163,-1.135315q0.170288,-1.02179 -0.113525,-0.737946q-0.283813,0.283783 -2.384155,-4.371002q-2.157104,-4.711578 -3.178894,-4.314178q-0.965027,0.454102 -1.703003,-3.519501l-0.681213,-3.973663l-0.567627,0.113556q-0.567688,0.170288 -1.135315,1.02182l-0.567627,0.851471l-0.567688,0l-0.567627,0l-0.113586,-0.170288l-0.170288,-0.113556l-0.170288,-0.113525l-0.113525,-0.170319l0.567688,-0.170288l0.567627,-0.113495l0.113525,-0.567688l0.170288,-0.567688l0.170288,-0.113525q0.113586,-0.170258 0.965027,-0.567657q0.851501,-0.454132 0,-2.838318q-0.85144,-2.440887 -1.305603,-1.702942q-0.397339,0.681183 -1.24884,-0.454102q-0.851501,-1.135376 -0.567627,-1.986847q0.283752,-0.851471 0.681152,-3.405975q0.454163,-2.554474 -0.113525,-2.554474q-0.567627,0 -1.135315,-1.021729q-0.567688,-0.965057 -2.724731,-9.877319q-2.100403,-8.969025 -3.519531,-9.252869q-1.419128,-0.283844 -1.589478,-3.405975q-0.113525,-3.122101 1.305664,-2.554474q1.419128,0.567688 0.965027,-9.93399l-0.3974,-10.50174l-0.170288,-0.567657l-0.113525,-0.567657l-0.851501,-0.113525l-0.851501,-0.170319l-0.113525,-0.170288l-0.170288,-0.113556l-0.170288,0.113556l-0.113586,0.170288l-1.135254,0.170319l-1.135315,0.113525l0,0.567657l0,0.567657l0.567627,0.113556l0.567688,0.170258l0.113464,0.170288l0.170349,0.113556l-0.170349,4.54129q-0.113464,4.54126 0.737976,4.54126q0.851501,0 0.567688,1.135315q-0.283875,1.135345 -1.419128,1.135345q-1.135315,0 -1.021851,1.419159l0.170349,1.419098l0.283813,0.851532l0.283813,0.851471l0.283875,0.567688l0.283813,0.567627l0.170288,0.567688l0.113525,0.567657l-0.851501,-0.113556l-0.85144,-0.170288l-0.113586,-0.170319l-0.170288,-0.113495l-0.170288,-0.113525l-0.113525,-0.170319l-0.113525,-0.170288l-0.170349,-0.113556l-0.397339,-5.222443q-0.454102,-5.279266 -1.475891,-5.108978q-0.965027,0.113556 -0.965027,-2.724731q0,-2.838318 1.305603,-13.056213q1.248901,-10.217865 0.681213,-10.217865q-0.567688,0 -0.113525,-2.270599q0.397339,-2.270691 0.227051,-5.392822q-0.113525,-3.122101 -1.135315,-3.122101q-0.965027,0 0.454102,-7.095764q1.419128,-7.095734 2.724792,-10.047607q1.24884,-3.008575 3.405945,-4.314178q2.100342,-1.248871 2.27063,-2.100342q0.113525,-0.851501 -0.567688,-1.135345q-0.737915,-0.283813 0,-1.532684q0.681213,-1.305603 2.270691,-3.746521q1.532654,-2.384216 1.362427,-3.065399q-0.113586,-0.737915 0,-1.702972q0.170227,-1.02179 2.157104,-4.995392q1.986755,-3.973633 2.951782,-6.130737q1.02179,-2.100342 4.143921,-4.654816q3.122131,-2.554443 5.676575,-5.790131q2.554504,-3.292419 3.576294,-3.576233q0.965027,-0.283844 2.951843,-3.122162q1.986816,-2.838287 5.676575,-5.960419q3.689819,-3.122131 6.357788,5.392761q2.724792,8.514923 3.860107,8.798737q1.135315,0.283844 0.85144,-1.986816q-0.283752,-2.27063 0.567688,-2.27063q0.851501,0 0.851501,1.589447q0,1.532684 0.681213,1.362396q0.737915,-0.113556 3.973572,10.10434q3.29248,10.217865 4.143921,10.217865q0.851501,0 2.100403,6.528107q1.305542,6.528076 2.724731,21.003418q1.419128,14.475311 1.419128,21.571075q0,7.095764 -0.283813,13.62384q-0.283813,6.528076 -1.24884,8.912262q-1.02179,2.440948 0.113525,2.27063q1.135315,-0.113525 0,1.475891q-1.135315,1.532745 -2.384155,1.930084q-1.305664,0.454132 -1.589478,1.305634q-0.283813,0.851471 1.02179,1.702942q1.248901,0.851532 1.248901,-0.851471q0,-1.702972 0.567627,-1.702972q0.567688,0 0.454102,2.554443q-0.170288,2.554474 -1.589417,5.960449q-1.419189,3.405945 -1.589417,1.419159q-0.113586,-1.986847 -1.703003,-1.135315q-1.532654,0.851471 -0.965027,4.54126q0.567688,3.689819 0,5.676605q-0.567627,1.986816 0.170227,3.576233q0.681274,1.532715 1.135376,1.930084q0.397339,0.454102 0,1.135315q-0.454102,0.737946 -1.135376,0.908234q-0.737854,0.113556 -1.135254,0.794769q-0.454163,0.737946 -1.589478,0.908203q-1.135315,0.113525 -1.24884,0.681213q-0.170288,0.567688 -0.454102,1.135315zm-2.838318,56.198334q0.567688,0 0.567688,0.567688q0,0.567657 -0.567688,0.567657q-0.567627,0 -0.567627,-0.567657q0,-0.567688 0.567627,-0.567688z"/>
 </g>
</svg>